<svg width="120" height="43" viewBox="0 0 120 43" fill="none" xmlns="http://www.w3.org/2000/svg">
<path fill-rule="evenodd" clip-rule="evenodd" d="M23.8625 8.40681C24.2063 8.40681 24.533 8.42401 24.8596 8.45839C24.3954 3.71341 20.3897 -6.10352e-05 15.5072 -6.10352e-05H0.120361V33.6446H8.47566V8.40681H23.8625Z" fill="#2987FF"/>
<path fill-rule="evenodd" clip-rule="evenodd" d="M29.6389 25.2207C31.8395 23.5015 33.2664 20.8195 33.2664 17.7937C33.2664 12.9456 29.5873 8.93985 24.8595 8.44128C24.8939 8.75074 24.9111 9.0602 24.9111 9.36965C24.9111 12.3782 23.4842 15.0774 21.2836 16.7966C23.4842 18.5158 24.9111 21.1977 24.9111 24.2235C24.9111 29.4155 20.6991 33.6275 15.5071 33.6275H15.4555H8.47559V42.0344H23.828H23.8796C29.0716 42.0344 33.2836 37.8224 33.2836 32.6304C33.2664 29.639 31.8395 26.9398 29.6389 25.2207Z" fill="#FF7485"/>
<path fill-rule="evenodd" clip-rule="evenodd" d="M24.9111 24.2407C24.9111 21.2321 23.4842 18.533 21.2836 16.8138C23.4842 15.0946 24.9111 12.4127 24.9111 9.38686C24.9111 9.07741 24.8939 8.75076 24.8595 8.4585C24.5329 8.42411 24.1891 8.40692 23.8624 8.40692H8.47559V33.6275H15.4727C15.4727 33.6447 15.4899 33.6447 15.5071 33.6447C20.6991 33.6447 24.9111 29.4327 24.9111 24.2407Z" fill="#132193"/>
<path fill-rule="evenodd" clip-rule="evenodd" d="M45.9981 25.7147H49.2713C49.7694 25.7147 50.1607 25.5371 50.4809 25.2173C50.8011 24.8972 50.9434 24.4712 50.9434 23.9738C50.9434 23.476 50.8011 23.0855 50.4809 22.7654C50.1607 22.446 49.7694 22.2683 49.2713 22.2683H45.9981V25.7147ZM45.9981 19.7812H48.8443C49.3068 19.7812 49.6626 19.6387 49.9472 19.3193C50.2319 18.9995 50.4098 18.6442 50.4098 18.1823C50.4098 17.7204 50.2674 17.3293 49.9828 17.0454C49.6982 16.7611 49.3068 16.5835 48.8799 16.5835H45.9981V19.7812ZM43.1519 28.3795V13.9187H48.8799C50.1251 13.9187 51.1569 14.3092 52.0107 15.0557C52.8646 15.8018 53.2915 16.7963 53.2915 17.9688C53.2915 19.1772 52.829 20.1365 51.904 20.8471C52.5088 21.2024 52.9713 21.6288 53.3271 22.1972C53.6829 22.7654 53.8252 23.4053 53.8252 24.1514C53.8252 25.3594 53.3983 26.3894 52.5088 27.1715C51.655 27.9531 50.552 28.3436 49.3068 28.3436H43.1519V28.3795Z" fill="#132193"/>
<path fill-rule="evenodd" clip-rule="evenodd" d="M58.6283 21.1667C58.0947 21.6996 57.8456 22.3747 57.8456 23.2278C57.8456 24.0801 58.0947 24.7197 58.6283 25.2885C59.162 25.8215 59.838 26.1053 60.6207 26.1053C61.439 26.1053 62.1149 25.8215 62.6486 25.2885C63.1823 24.7556 63.4669 24.0801 63.4669 23.2278C63.4669 22.4102 63.1823 21.6996 62.6486 21.1667C62.1149 20.6337 61.439 20.3495 60.6207 20.3495C59.8024 20.3854 59.162 20.6337 58.6283 21.1667ZM55.8888 25.9991C55.3907 25.146 55.1772 24.2578 55.1772 23.2277C55.1772 22.2326 55.4263 21.3088 55.8888 20.456C56.3869 19.6037 57.0273 18.9641 57.8812 18.5019C58.6995 18.04 59.6245 17.7913 60.6207 17.7913C61.6168 17.7913 62.5419 18.04 63.3957 18.5019C64.2496 18.9641 64.89 19.6389 65.3881 20.456C65.8862 21.3088 66.1352 22.197 66.1352 23.2277C66.1352 24.2226 65.8862 25.146 65.3881 25.9991C64.89 26.8515 64.2496 27.4914 63.3957 27.9533C62.5419 28.4148 61.6524 28.6639 60.6207 28.6639C59.6245 28.6639 58.6995 28.4148 57.8812 27.9533C57.0273 27.4914 56.3513 26.8159 55.8888 25.9991Z" fill="#132193"/>
<path fill-rule="evenodd" clip-rule="evenodd" d="M70.867 21.1667C70.3333 21.6996 70.0843 22.3747 70.0843 23.2278C70.0843 24.0801 70.3333 24.7197 70.867 25.2885C71.4007 25.8215 72.0767 26.1053 72.8594 26.1053C73.6777 26.1053 74.3536 25.8215 74.8873 25.2885C75.421 24.7556 75.7056 24.0801 75.7056 23.2278C75.7056 22.4102 75.421 21.6996 74.8873 21.1667C74.3536 20.6337 73.6777 20.3495 72.8594 20.3495C72.0767 20.3854 71.4007 20.6337 70.867 21.1667ZM68.1631 25.9991C67.665 25.146 67.4515 24.2578 67.4515 23.2277C67.4515 22.2326 67.7006 21.3088 68.1631 20.456C68.6256 19.6037 69.3016 18.9641 70.1555 18.5019C70.9737 18.04 71.8988 17.7913 72.895 17.7913C73.8911 17.7913 74.8162 18.04 75.67 18.5019C76.5239 18.9641 77.1643 19.6389 77.6624 20.456C78.1605 21.3088 78.4095 22.197 78.4095 23.2277C78.4095 24.2226 78.1605 25.146 77.6624 25.9991C77.1643 26.8515 76.5239 27.4914 75.67 27.9533C74.8162 28.4148 73.9267 28.6639 72.895 28.6639C71.8988 28.6639 70.9737 28.4148 70.1555 27.9533C69.3016 27.4914 68.6256 26.8159 68.1631 25.9991Z" fill="#132193"/>
<path fill-rule="evenodd" clip-rule="evenodd" d="M80.2239 28.3794H82.8922V13.3146H80.2239V28.3794Z" fill="#132193"/>
<path fill-rule="evenodd" clip-rule="evenodd" d="M87.5173 22.2683H92.7828C92.6405 21.5932 92.3203 21.0603 91.8222 20.705C91.3597 20.3497 90.8261 20.2076 90.1857 20.2076C89.4741 20.2076 88.9049 20.3852 88.4068 20.7405C87.9798 21.0958 87.6952 21.5932 87.5173 22.2683ZM84.7778 23.2276C84.7778 21.6643 85.2759 20.3852 86.3077 19.3193C87.3394 18.2889 88.6202 17.756 90.2212 17.756C91.2174 17.756 92.1069 18.0047 92.9252 18.5018C93.7435 18.9995 94.3483 19.6391 94.7752 20.4918C95.2021 21.309 95.4512 22.2324 95.4512 23.2276C95.4512 23.5829 95.4156 23.9382 95.3445 24.329H87.5529C87.7308 24.9686 88.0866 25.466 88.5847 25.7854C89.0828 26.1056 89.7232 26.2477 90.4703 26.2477C90.9684 26.2477 91.4309 26.1407 91.8222 25.9631C92.2136 25.7854 92.5338 25.5371 92.7829 25.2173L94.9175 26.4609C94.4194 27.1715 93.8146 27.7044 93.0319 28.0949C92.2848 28.4861 91.3953 28.6637 90.3991 28.6637C89.5453 28.6637 88.7626 28.5216 88.051 28.2374C87.3394 27.9531 86.7346 27.5619 86.2721 27.1004C85.774 26.603 85.4182 26.0345 85.1336 25.3594C84.9201 24.7195 84.7778 23.9737 84.7778 23.2276Z" fill="#132193"/>
<path fill-rule="evenodd" clip-rule="evenodd" d="M100.148 21.1313C99.614 21.6642 99.3294 22.3748 99.3294 23.2275C99.3294 24.0803 99.614 24.7909 100.148 25.3238C100.681 25.8568 101.357 26.141 102.176 26.141C102.994 26.141 103.705 25.8568 104.239 25.3238C104.773 24.7909 105.057 24.0803 105.057 23.2275C105.057 22.3748 104.773 21.6642 104.239 21.1313C103.705 20.5983 102.994 20.3141 102.176 20.3141C101.393 20.3141 100.717 20.5983 100.148 21.1313ZM98.1552 27.1003C97.159 26.0344 96.6965 24.7553 96.6965 23.2275C96.6965 21.6997 97.1946 20.4206 98.1552 19.3547C99.1514 18.2888 100.325 17.7559 101.713 17.7559C103.136 17.7559 104.275 18.2533 105.093 19.2837V18.0757H107.761V28.3794H105.093V27.1714C104.275 28.1662 103.172 28.6992 101.713 28.6992C100.325 28.6636 99.1514 28.1662 98.1552 27.1003Z" fill="#132193"/>
<path fill-rule="evenodd" clip-rule="evenodd" d="M110.181 28.3796V18.0758H112.849V19.2483C113.169 18.7864 113.56 18.4311 114.094 18.1824C114.628 17.9337 115.233 17.7912 115.909 17.7912C117.047 17.7912 117.972 18.1824 118.719 18.9282C119.466 19.6747 119.822 20.7406 119.822 22.0548V28.3796H117.154V22.375C117.154 21.6995 116.976 21.1666 116.585 20.8113C116.229 20.456 115.731 20.2783 115.09 20.2783C114.414 20.2783 113.845 20.4919 113.454 20.9182C113.027 21.3442 112.849 21.9841 112.849 22.8365V28.4151H110.181V28.3796Z" fill="#132193"/>
</svg>
